<?xml version="1.0" standalone="no"?>
<!DOCTYPE svg PUBLIC "-//W3C//DTD SVG 20010904//EN"
 "http://www.w3.org/TR/2001/REC-SVG-20010904/DTD/svg10.dtd">
<svg version="1.0" xmlns="http://www.w3.org/2000/svg"
 width="566.000000pt" height="566.000000pt" viewBox="0 0 566.000000 566.000000"
 preserveAspectRatio="xMidYMid meet">
<metadata>
Created by potrace 1.11, written by Peter Selinger 2001-2013
</metadata>
<g transform="translate(0.000000,566.000000) scale(0.100000,-0.100000)"
fill="#000000" stroke="none">
<path d="M3102 5610 c0 -30 -1 -57 -2 -60 0 -3 -3 -30 -5 -61 -2 -31 -6 -77
-9 -103 -4 -25 -9 -67 -12 -93 -12 -103 -68 -228 -123 -273 -78 -65 -99 -42
-226 255 -93 216 -121 263 -94 160 5 -22 12 -53 15 -70 3 -16 9 -32 12 -35 4
-3 8 -18 10 -35 1 -16 5 -37 9 -45 3 -8 7 -20 8 -26 4 -18 45 -187 52 -214 14
-57 24 -226 14 -245 -3 -5 -7 -28 -8 -50 -2 -39 -33 -196 -40 -204 -4 -6 -53
40 -53 50 0 4 -26 47 -58 96 -114 172 -112 166 -106 273 7 143 11 155 64 226
28 36 50 67 50 70 0 11 -26 1 -73 -31 l-51 -35 -26 73 c-14 39 -43 99 -64 132
-42 65 -178 203 -184 187 -3 -9 79 -145 98 -162 24 -23 71 -162 86 -260 21
-139 9 -167 -71 -161 -26 2 -162 57 -175 71 -3 3 -23 18 -45 35 -22 16 -53 45
-70 64 -106 122 -143 122 -61 0 25 -37 51 -82 60 -102 13 -32 13 -37 -1 -49
-18 -14 -167 -16 -260 -3 -45 6 -53 5 -53 -9 0 -9 12 -18 28 -22 15 -3 41 -10
57 -14 37 -10 110 -22 220 -35 11 -1 20 -3 20 -4 0 -1 23 -4 50 -6 28 -2 65
-8 84 -14 19 -6 37 -8 42 -6 4 3 9 2 11 -2 1 -5 28 -20 58 -36 50 -24 125 -88
171 -145 62 -75 110 -206 113 -307 l1 -40 -46 1 c-70 0 -275 105 -356 182 -44
41 -86 105 -76 115 3 4 1 7 -5 7 -6 0 -14 17 -18 38 -4 20 -10 43 -14 51 -16
30 -29 -88 -16 -146 7 -31 6 -32 -21 -27 -31 5 -90 15 -113 21 -41 9 -130 12
-130 5 0 -5 6 -9 13 -10 15 -1 127 -31 147 -39 8 -3 17 -7 20 -7 3 -1 11 -5
18 -9 6 -5 12 -6 12 -2 0 23 197 -110 345 -233 11 -9 38 -30 60 -47 139 -104
157 -134 111 -180 -24 -23 -29 -24 -118 -20 -99 5 -111 7 -173 24 -104 28
-237 142 -324 276 -29 44 -55 82 -57 85 -5 5 2 -80 11 -120 4 -22 28 -64 79
-142 l17 -26 -44 13 c-25 7 -61 16 -81 19 -20 3 -56 10 -80 16 -24 5 -68 12
-98 16 l-53 5 34 -21 c19 -12 45 -24 57 -26 43 -8 160 -56 224 -92 36 -20 78
-43 95 -50 16 -7 32 -16 35 -20 3 -4 30 -20 60 -35 97 -50 190 -112 190 -126
0 -25 -84 -38 -300 -47 -225 -8 -341 -30 -348 -65 -3 -14 7 -16 65 -13 121 7
157 7 238 0 44 -4 100 -9 125 -10 89 -7 280 -45 280 -56 0 -4 6 -7 13 -7 24 0
127 -64 162 -100 50 -52 69 -118 68 -243 -1 -188 -6 -349 -12 -358 -3 -5 -116
-12 -251 -16 -135 -3 -294 -9 -355 -12 -60 -3 -144 -7 -185 -9 -41 -2 -75 -4
-75 -5 0 -1 -36 -3 -80 -5 -44 -3 -105 -7 -135 -9 -30 -3 -84 -8 -120 -11 -36
-3 -83 -8 -105 -11 -22 -2 -67 -7 -100 -10 -33 -3 -77 -9 -99 -14 -21 -5 -45
-6 -52 -3 -8 3 -14 -1 -14 -9 0 -10 14 -15 44 -17 25 -1 55 -4 67 -6 13 -3 55
-7 94 -11 38 -3 79 -8 90 -10 11 -2 58 -7 105 -10 113 -9 145 -12 145 -13 0
-2 107 -8 255 -16 36 -2 65 -4 65 -4 0 -3 481 -18 636 -20 l75 -1 3 -127 c1
-71 4 -167 5 -215 4 -147 -23 -236 -89 -290 -53 -44 -169 -99 -235 -111 -19
-4 -46 -9 -60 -12 -51 -10 -107 -17 -160 -20 -30 -2 -55 -5 -55 -6 0 -7 -169
-10 -288 -5 -58 3 -67 1 -65 -13 7 -34 138 -57 383 -66 187 -7 265 -20 265
-44 0 -13 -56 -53 -135 -96 -38 -21 -92 -51 -118 -67 -26 -15 -51 -28 -55 -28
-4 0 -19 -8 -32 -17 -14 -10 -31 -18 -39 -20 -8 -1 -17 -6 -21 -12 -3 -6 -33
-21 -66 -34 -32 -13 -68 -28 -79 -32 -11 -5 -22 -9 -25 -10 -30 -7 -89 -30
-103 -40 -15 -11 -16 -13 -3 -18 9 -4 18 -2 21 3 3 5 16 9 28 9 12 -1 56 6 97
15 65 15 108 24 145 30 6 1 16 5 23 10 25 16 22 -1 -9 -44 -45 -62 -67 -117
-74 -185 l-6 -60 57 85 c56 85 190 224 225 235 11 4 19 11 19 17 0 6 3 8 6 5
4 -3 16 -1 28 5 11 7 26 13 31 15 71 18 102 23 168 29 101 8 141 0 155 -31 11
-24 9 -63 -5 -75 -14 -11 -196 -154 -243 -190 -61 -47 -60 -46 -105 -86 -22
-19 -71 -50 -110 -69 -65 -31 -229 -85 -261 -85 -8 0 -14 -5 -14 -10 0 -6 21
-9 53 -6 28 2 52 5 52 6 0 1 9 3 20 5 11 1 34 5 50 9 17 4 44 9 60 11 l30 4 0
-86 c0 -60 4 -88 13 -90 8 -3 12 5 12 24 0 35 39 117 75 160 43 51 156 122
308 194 15 7 49 13 75 13 l47 1 1 -35 c0 -19 -5 -54 -12 -78 -6 -23 -10 -42
-7 -42 3 0 0 -7 -7 -15 -7 -8 -9 -15 -5 -15 4 0 2 -7 -5 -15 -7 -8 -10 -15 -6
-15 8 0 -39 -85 -69 -125 -56 -74 -125 -131 -199 -165 -47 -21 -59 -25 -121
-35 -16 -3 -37 -7 -45 -10 -8 -2 -42 -6 -75 -10 -83 -9 -122 -14 -181 -26 -28
-5 -63 -12 -78 -15 -32 -6 -61 -30 -47 -39 6 -3 34 -3 63 1 29 3 69 7 89 9 20
1 40 5 45 8 13 7 104 -10 120 -24 17 -14 -2 -58 -63 -150 -34 -51 -43 -73 -35
-81 8 -8 18 -3 37 18 113 126 177 175 281 216 64 26 98 28 129 11 30 -17 27
-104 -9 -251 -18 -73 -43 -124 -98 -205 -21 -32 -48 -74 -59 -93 l-19 -35 21
12 c35 18 131 121 173 183 21 32 49 88 62 125 13 36 28 67 34 69 5 2 31 -10
57 -27 79 -52 81 -44 13 46 -54 71 -57 81 -64 224 -6 109 -15 84 117 294 92
145 98 149 112 78 5 -21 9 -42 11 -48 17 -72 27 -160 26 -250 0 -61 -7 -140
-12 -140 -1 0 -3 -11 -6 -24 -2 -13 -16 -69 -30 -125 -14 -55 -27 -108 -29
-116 -2 -8 -8 -35 -15 -60 -7 -25 -14 -53 -16 -64 -2 -10 -8 -34 -15 -53 -9
-29 -7 -56 4 -42 9 12 97 218 97 228 0 6 4 11 9 11 5 0 11 10 14 23 7 32 51
131 60 135 4 2 7 10 7 17 0 21 56 75 78 75 69 0 162 -163 178 -314 3 -28 7
-64 10 -81 6 -42 16 -182 17 -227 0 -38 16 -54 19 -20 1 17 4 33 8 42 13 34
24 162 23 266 -2 166 -40 276 -132 383 -77 90 -83 102 -82 178 0 37 5 83 10
102 6 18 10 36 9 40 0 3 1 8 2 11 2 6 6 26 13 63 23 116 52 162 92 147 36 -14
335 -533 350 -609 2 -9 10 -36 18 -61 15 -47 39 -128 43 -145 1 -5 16 -54 33
-107 41 -125 63 -145 38 -33 -36 152 -50 212 -55 219 -3 6 -7 19 -8 30 -1 12
-4 32 -8 46 -3 14 -7 41 -10 60 -3 19 -8 54 -11 78 -8 49 0 52 41 15 17 -16
70 -64 118 -107 90 -83 156 -133 156 -119 0 4 -22 33 -50 63 -27 30 -53 60
-57 65 -5 6 -29 35 -54 65 -93 111 -278 363 -300 409 -33 69 -49 121 -39 121
5 0 65 -43 134 -94 69 -52 143 -104 165 -115 39 -20 71 -27 71 -16 0 3 -28 31
-62 63 -153 141 -332 328 -348 365 -27 59 0 100 71 110 8 2 19 5 24 8 14 6 76
3 100 -5 77 -28 192 -96 254 -152 72 -64 250 -243 300 -301 29 -35 57 -61 61
-58 21 13 -64 147 -160 251 -73 78 -96 120 -86 158 5 22 38 43 59 38 4 -1 7 1
7 6 0 9 261 9 277 -1 6 -4 15 -3 18 3 4 6 12 7 18 3 17 -12 131 -10 137 2 5 9
-63 36 -122 50 -153 34 -260 50 -388 60 -146 11 -198 24 -288 69 -64 32 -153
104 -159 127 -3 11 -9 19 -15 19 -10 0 10 42 26 52 14 10 120 10 130 1 4 -4
17 -8 29 -9 35 -4 65 -12 151 -41 45 -15 83 -28 86 -28 3 -1 19 -7 35 -14 138
-59 153 -46 41 34 -31 22 -56 43 -56 46 0 4 17 10 38 13 59 11 146 39 154 50
4 6 8 7 8 3 0 -11 120 53 120 64 0 4 -9 7 -20 6 -11 -1 -20 -6 -20 -11 0 -5
-3 -7 -6 -3 -3 3 -27 -1 -52 -9 -40 -11 -141 -27 -177 -27 -39 0 -152 16 -174
25 -14 5 -36 12 -47 14 -12 2 -80 24 -150 49 -71 25 -133 47 -139 48 -37 10
-105 48 -112 64 -9 19 -9 171 1 343 3 58 6 129 7 158 1 29 6 55 10 57 4 3 87
7 185 10 99 3 238 8 309 11 72 3 166 6 211 8 44 1 85 5 90 7 5 3 42 5 81 5 40
-1 73 2 73 5 0 3 24 6 53 6 28 1 79 4 112 7 33 3 87 8 120 11 33 3 71 8 85 10
34 5 128 17 163 20 31 3 49 14 26 16 -8 1 -23 3 -34 4 -11 2 -47 6 -80 9 -33
4 -67 9 -75 11 -14 4 -67 9 -195 20 -191 17 -301 25 -410 30 -44 2 -132 7
-195 10 -130 7 -337 13 -451 14 l-76 1 -2 68 c-4 132 -10 212 -16 222 -3 6 -2
10 4 10 6 0 8 9 3 23 -4 12 -6 67 -6 122 3 137 3 137 14 130 6 -3 10 -2 10 3
0 8 82 49 115 58 6 1 55 18 110 37 193 68 275 88 360 87 111 0 131 -3 278 -46
34 -10 16 16 -25 38 -24 12 -45 23 -48 23 -3 1 -21 9 -40 18 -19 9 -70 24
-112 34 -43 10 -78 20 -78 23 0 3 15 15 33 27 54 37 102 82 95 88 -4 4 -60
-14 -125 -38 -101 -39 -208 -73 -208 -67 0 1 -13 -3 -28 -9 -16 -6 -57 -14
-92 -17 -50 -5 -69 -3 -93 11 -27 16 -29 21 -20 47 13 37 82 96 160 138 35 19
68 35 73 37 6 1 34 9 63 17 30 9 97 18 150 21 53 3 104 7 112 10 8 2 35 6 60
9 25 3 56 8 70 11 14 3 39 7 55 9 41 6 185 44 214 57 41 17 6 27 -83 23 -107
-6 -337 -6 -356 -2 -62 16 -75 32 -66 83 5 26 44 80 108 147 59 62 86 99 116
158 9 19 20 37 24 40 11 8 -6 30 -17 22 -6 -4 -27 -28 -48 -54 -90 -112 -312
-322 -387 -366 -25 -14 -48 -31 -52 -37 -5 -6 -8 -6 -8 0 0 6 -3 6 -8 -1 -4
-5 -29 -20 -55 -33 -83 -38 -221 -20 -245 33 -20 44 19 100 176 256 81 80 169
164 195 187 26 23 47 45 47 49 0 22 -113 -32 -185 -89 -101 -80 -174 -122
-187 -109 -4 4 4 28 17 52 13 25 28 54 33 65 13 27 141 198 156 207 6 4 8 8 4
8 -7 0 9 22 47 64 6 6 23 29 39 51 32 43 120 147 173 205 18 19 33 39 33 44 0
10 -44 -18 -80 -50 -14 -12 -45 -40 -70 -62 -25 -23 -69 -63 -99 -91 -30 -28
-58 -51 -63 -51 -5 0 -6 19 -3 43 4 23 8 56 10 72 6 56 14 90 45 210 17 66 33
129 35 140 2 11 7 35 10 53 4 20 2 32 -4 32 -6 0 -11 -7 -11 -15 0 -8 -4 -23
-10 -33 -5 -9 -25 -71 -45 -137 -89 -293 -99 -319 -195 -490 -12 -22 -27 -46
-32 -52 -6 -7 -7 -13 -2 -13 5 0 4 -4 -2 -8 -6 -4 -40 -56 -75 -117 -76 -132
-112 -175 -140 -168 -11 3 -22 10 -25 15 -27 43 -83 329 -77 388 4 36 33 86
75 130 42 44 91 122 104 165 32 107 37 139 36 260 -1 72 -3 139 -6 150 -2 11
-7 44 -11 73 -4 28 -11 52 -15 52 -5 0 -11 8 -14 18 -2 9 -4 -8 -4 -38z"/>
<path d="M3305 5591 c-67 -30 -96 -82 -89 -156 4 -50 26 -68 62 -52 65 27 102
87 96 157 -5 63 -19 74 -69 51z"/>
<path d="M2502 5504 c-34 -23 -54 -71 -49 -113 11 -82 34 -96 83 -47 33 33 39
51 34 106 -2 27 -25 70 -38 70 -4 0 -18 -7 -30 -16z"/>
<path d="M2796 5478 c-31 -78 -15 -157 44 -222 36 -39 108 -69 133 -55 34 20
39 161 7 203 -34 42 -59 66 -69 66 -6 0 -11 4 -11 8 0 8 -58 32 -79 32 -6 0
-18 -15 -25 -32z"/>
<path d="M2104 5341 c-3 -3 -11 -6 -17 -6 -8 0 -12 -16 -11 -42 3 -93 79 -172
170 -178 69 -4 85 7 78 53 -12 81 -73 154 -139 167 -54 11 -74 12 -81 6z"/>
<path d="M3665 5334 c-40 -14 -109 -79 -100 -95 3 -4 1 -10 -4 -13 -5 -3 -8
-14 -6 -24 16 -79 13 -77 90 -52 57 19 101 89 91 146 -2 16 -5 32 -5 35 -2 15
-28 16 -66 3z"/>
<path d="M3281 5311 c-42 -20 -82 -84 -64 -102 7 -7 32 -13 57 -14 54 -3 89
18 116 68 17 31 17 37 4 48 -22 18 -76 19 -113 0z"/>
<path d="M1811 5178 c-40 -14 -52 -65 -26 -114 8 -16 15 -25 15 -20 0 5 6 4
13 -1 17 -14 68 -7 86 12 9 9 16 32 16 56 0 61 -45 89 -104 67z"/>
<path d="M3211 5092 c-34 -33 -34 -72 -2 -105 18 -19 81 -32 81 -16 0 5 6 9
14 9 15 0 25 20 32 60 5 30 -26 65 -68 75 -22 6 -33 1 -57 -23z"/>
<path d="M2650 5031 c0 -7 -4 -10 -8 -7 -11 6 -54 -32 -74 -64 -22 -37 -23
-104 -2 -140 23 -39 43 -38 87 4 39 36 53 83 44 141 -5 33 -47 92 -47 66z"/>
<path d="M3751 4938 c-52 -9 -101 -44 -129 -93 l-21 -35 21 -19 c24 -23 66
-39 91 -35 9 1 17 -2 17 -7 0 -6 6 -7 13 -2 6 4 14 8 17 8 61 9 115 49 144
105 12 26 12 30 -3 43 -30 27 -103 44 -150 35z"/>
<path d="M3104 4901 c-90 -55 -113 -175 -51 -267 20 -31 22 -31 46 -16 48 29
80 65 93 101 13 40 17 81 9 96 -3 6 -6 17 -6 25 -1 21 -37 80 -50 80 -5 0 -24
-9 -41 -19z"/>
<path d="M1742 4843 c-21 -4 -23 -9 -18 -45 11 -81 88 -139 172 -130 41 4 49
37 22 92 -31 63 -103 96 -176 83z"/>
<path d="M2227 4732 c-43 -4 -52 -17 -43 -67 17 -88 125 -151 209 -122 27 9
28 12 22 46 -4 20 -14 47 -22 61 -15 27 -78 75 -97 75 -6 0 -15 3 -21 5 -5 3
-27 4 -48 2z"/>
<path d="M3670 4562 c-37 -46 -13 -130 38 -133 65 -4 101 23 102 77 0 49 -31
81 -80 81 -32 0 -45 -6 -60 -25z"/>
<path d="M1522 4477 c-20 -24 6 -104 44 -139 31 -27 91 -47 126 -42 18 3 39 6
46 6 27 2 5 91 -34 137 -38 45 -156 69 -182 38z"/>
<path d="M3493 4398 c-31 -15 -65 -89 -60 -130 5 -46 27 -88 46 -88 22 1 63
39 79 73 16 38 15 92 -3 127 -17 32 -27 35 -62 18z"/>
<path d="M4005 4353 c-39 -20 -63 -46 -70 -76 -5 -20 -1 -26 23 -36 49 -20 85
-21 127 0 22 10 49 33 59 50 18 30 18 32 -1 51 -26 25 -98 31 -138 11z"/>
<path d="M2123 4329 c-29 -10 -55 -52 -55 -86 0 -35 52 -84 84 -78 51 10 87
46 82 83 -1 6 -2 18 -3 25 -4 39 -66 72 -108 56z"/>
<path d="M1645 4041 c-44 -15 -75 -35 -75 -49 0 -53 82 -120 156 -126 65 -6
93 1 127 28 28 22 28 24 14 52 -42 80 -142 123 -222 95z"/>
<path d="M4023 3901 c-36 -18 -74 -62 -71 -80 9 -46 109 -70 174 -42 38 17 84
66 84 89 0 6 -20 20 -44 31 -49 24 -100 25 -143 2z"/>
<path d="M1896 3647 c-24 -6 -55 -26 -82 -53 -63 -62 -59 -91 16 -117 71 -24
165 0 208 52 27 33 40 74 28 86 -34 33 -108 47 -170 32z"/>
<path d="M3788 3624 c-53 -28 -64 -94 -24 -141 31 -35 91 -37 127 -4 34 31 35
98 2 129 -13 12 -30 22 -38 22 -7 0 -19 2 -27 5 -7 2 -25 -2 -40 -11z"/>
</g>
</svg>
