<svg width="24" height="24" viewBox="0 0 24 24" fill="none" xmlns="http://www.w3.org/2000/svg">
<path d="M9 13C11.2091 13 13 11.2091 13 9C13 6.79086 11.2091 5 9 5C6.79086 5 5 6.79086 5 9C5 11.2091 6.79086 13 9 13Z" fill="#EB5757"/>
<path d="M8.5 16C5.83 16 0.5 17.34 0.5 20V22H16.5V20C16.5 17.34 11.17 16 8.5 16ZM16.26 6.36L14.58 8.05C15.42 9.23 15.42 10.76 14.58 11.94L16.26 13.63C18.28 11.61 18.28 8.56 16.26 6.36ZM19.57 3L17.94 4.63C20.71 7.65 20.71 12.19 17.94 15.37L19.57 17C23.47 13.11 23.5 6 19.57 3Z" fill="#EB5757"/>
</svg>
