<svg width="288" height="323" viewBox="0 0 288 323" fill="none" xmlns="http://www.w3.org/2000/svg">
<path d="M80 258.25C88.8 258.25 96 250.994 96 242.125V80.875C96 72.0063 88.8 64.75 80 64.75C71.2 64.75 64 72.0063 64 80.875V242.125C64 250.994 71.2 258.25 80 258.25ZM144 322.75C152.8 322.75 160 315.494 160 306.625V16.375C160 7.50625 152.8 0.25 144 0.25C135.2 0.25 128 7.50625 128 16.375V306.625C128 315.494 135.2 322.75 144 322.75ZM16 193.75C24.8 193.75 32 186.494 32 177.625V145.375C32 136.506 24.8 129.25 16 129.25C7.2 129.25 0 136.506 0 145.375V177.625C0 186.494 7.2 193.75 16 193.75ZM208 258.25C216.8 258.25 224 250.994 224 242.125V80.875C224 72.0063 216.8 64.75 208 64.75C199.2 64.75 192 72.0063 192 80.875V242.125C192 250.994 199.2 258.25 208 258.25ZM256 145.375V177.625C256 186.494 263.2 193.75 272 193.75C280.8 193.75 288 186.494 288 177.625V145.375C288 136.506 280.8 129.25 272 129.25C263.2 129.25 256 136.506 256 145.375Z" fill="white" fill-opacity="0.54"/>
</svg>
