<svg width="23" height="19" viewBox="0 0 23 19" fill="none" xmlns="http://www.w3.org/2000/svg">
<path d="M9 10C11.2091 10 13 8.2091 13 6C13 3.79086 11.2091 2 9 2C6.79086 2 5 3.79086 5 6C5 8.2091 6.79086 10 9 10Z" fill="white"/>
<path d="M8.5 13C5.83 13 0.5 14.34 0.5 17V19H16.5V17C16.5 14.34 11.17 13 8.5 13ZM16.26 3.36L14.58 5.05C15.42 6.23 15.42 7.76 14.58 8.94L16.26 10.63C18.28 8.61 18.28 5.56 16.26 3.36ZM19.57 0L17.94 1.63C20.71 4.65 20.71 9.19 17.94 12.37L19.57 14C23.47 10.11 23.5 3 19.57 0Z" fill="white"/>
</svg>
